<?xml version="1.0" standalone="no"?>
<!DOCTYPE svg PUBLIC "-//W3C//DTD SVG 20010904//EN"
 "http://www.w3.org/TR/2001/REC-SVG-20010904/DTD/svg10.dtd">
<svg version="1.0" xmlns="http://www.w3.org/2000/svg"
 width="736.000000pt" height="736.000000pt" viewBox="0 0 736.000000 736.000000"
 preserveAspectRatio="xMidYMid meet">

<g transform="translate(0.000000,736.000000) scale(0.100000,-0.100000)"
fill="#000000" stroke="none">
<path d="M0 3680 l0 -3680 3680 0 3680 0 0 3680 0 3680 -3680 0 -3680 0 0
-3680z m2120 2164 c325 -113 400 -143 560 -224 285 -145 486 -281 664 -451 75
-71 95 -82 92 -51 -1 15 13 18 99 25 102 8 479 2 496 -9 5 -3 2 -15 -6 -27 -8
-12 -15 -25 -15 -29 0 -16 17 -7 60 35 158 152 288 255 402 322 10 5 55 32
100 60 209 125 471 239 833 361 61 20 122 43 137 50 58 30 63 23 83 -113 38
-245 48 -417 49 -823 1 -352 -1 -418 -17 -505 -10 -55 -22 -125 -27 -155 -4
-30 -12 -63 -16 -74 -5 -13 -3 -17 6 -14 8 2 18 22 24 43 6 21 16 40 22 42 10
3 74 -174 118 -327 66 -232 144 -617 166 -825 6 -55 13 -107 15 -115 3 -8 9
-100 15 -204 12 -229 15 -219 -119 -358 -173 -181 -405 -317 -646 -379 -97
-25 -268 -49 -350 -49 l-60 0 -55 66 c-30 36 -70 82 -87 103 -54 60 -87 111
-77 120 5 4 37 18 71 30 209 74 388 192 514 339 82 96 64 97 -81 3 -182 -118
-336 -183 -576 -245 -126 -32 -182 -43 -394 -77 -113 -18 -586 -21 -735 -5
-284 30 -596 104 -727 172 l-28 14 51 101 c27 56 48 104 45 107 -9 9 -31 -25
-76 -115 -22 -46 -44 -83 -49 -83 -13 0 -122 52 -150 72 -25 17 -25 18 -8 53
9 20 24 38 32 41 8 4 15 16 15 28 0 19 39 78 85 129 9 10 15 21 12 23 -10 11
-92 -87 -131 -156 -23 -41 -49 -76 -57 -78 -9 -1 -43 18 -77 43 -34 25 -69 45
-77 45 -32 0 -12 -32 72 -116 123 -123 287 -227 472 -298 34 -14 56 -28 56
-38 0 -8 -54 -74 -119 -146 l-120 -132 -50 0 c-277 2 -569 92 -799 248 -45 31
-91 65 -102 76 -12 12 -34 32 -51 46 -44 36 -143 149 -161 185 -33 62 -13 361
52 805 30 208 134 617 205 805 12 33 31 86 41 118 25 77 36 97 42 77 41 -139
52 -172 61 -177 10 -7 8 10 -23 158 -32 153 -39 294 -35 661 4 339 20 570 50
758 18 108 21 120 31 120 4 0 117 -39 253 -86z"/>
<path d="M3165 3338 c-22 -3 -65 -7 -95 -8 -134 -4 -476 -47 -508 -64 -37 -19
-61 -47 -71 -84 -7 -24 -5 -40 12 -74 32 -63 76 -76 199 -60 51 7 228 28 392
47 288 33 300 35 326 60 38 37 43 71 18 124 -27 57 -66 73 -162 69 -39 -2 -89
-6 -111 -10z"/>
<path d="M3984 3331 c-60 -37 -67 -122 -18 -181 30 -35 30 -35 299 -60 116
-11 257 -26 315 -35 199 -28 255 -18 283 54 27 66 -8 139 -77 160 -47 15 -359
54 -516 65 -256 18 -253 18 -286 -3z"/>
<path d="M3667 3053 c-11 -10 24 -43 44 -43 16 0 39 27 39 44 0 8 -75 7 -83
-1z"/>
</g>
</svg>
